<mxfile host="65bd71144e">
    <diagram name="Pagina-1" id="OSNdwUVigO7ghEmxx4kq">
        <mxGraphModel dx="917" dy="766" grid="1" gridSize="10" guides="1" tooltips="1" connect="1" arrows="1" fold="1" page="1" pageScale="1" pageWidth="827" pageHeight="1169" math="0" shadow="0">
            <root>
                <mxCell id="0"/>
                <mxCell id="1" parent="0"/>
                <mxCell id="jCm1OSXwjIrnByu9w6en-1" value="" style="rounded=0;whiteSpace=wrap;html=1;" parent="1" vertex="1">
                    <mxGeometry x="30" y="60" width="800" height="460" as="geometry"/>
                </mxCell>
                <mxCell id="jCm1OSXwjIrnByu9w6en-2" value="CHECK TEST RESULT" style="shape=table;startSize=30;container=1;collapsible=0;childLayout=tableLayout;strokeColor=#b85450;fontSize=16;fillColor=#f8cecc;perimeterSpacing=0;rounded=1;shadow=0;" parent="1" vertex="1">
                    <mxGeometry x="60" y="130" width="500" height="260" as="geometry"/>
                </mxCell>
                <mxCell id="jCm1OSXwjIrnByu9w6en-3" value="" style="shape=tableRow;horizontal=0;startSize=0;swimlaneHead=0;swimlaneBody=0;strokeColor=inherit;top=0;left=0;bottom=0;right=0;collapsible=0;dropTarget=0;fillColor=none;points=[[0,0.5],[1,0.5]];portConstraint=eastwest;fontSize=16;" parent="jCm1OSXwjIrnByu9w6en-2" vertex="1">
                    <mxGeometry y="30" width="500" height="113" as="geometry"/>
                </mxCell>
                <mxCell id="jCm1OSXwjIrnByu9w6en-4" value="CHOSEN CLASSIFIER" style="shape=partialRectangle;html=1;whiteSpace=wrap;connectable=0;strokeColor=#d79b00;overflow=hidden;fillColor=#ffe6cc;top=0;left=0;bottom=0;right=0;pointerEvents=1;fontSize=16;fontStyle=1;" parent="jCm1OSXwjIrnByu9w6en-3" vertex="1">
                    <mxGeometry width="120" height="113" as="geometry">
                        <mxRectangle width="120" height="113" as="alternateBounds"/>
                    </mxGeometry>
                </mxCell>
                <mxCell id="jCm1OSXwjIrnByu9w6en-5" value="Validation error" style="shape=partialRectangle;html=1;whiteSpace=wrap;connectable=0;strokeColor=#d79b00;overflow=hidden;fillColor=#ffe6cc;top=0;left=0;bottom=0;right=0;pointerEvents=1;fontSize=16;fontStyle=1;" parent="jCm1OSXwjIrnByu9w6en-3" vertex="1">
                    <mxGeometry x="120" width="104" height="113" as="geometry">
                        <mxRectangle width="104" height="113" as="alternateBounds"/>
                    </mxGeometry>
                </mxCell>
                <mxCell id="jCm1OSXwjIrnByu9w6en-6" value="Test Error" style="shape=partialRectangle;html=1;whiteSpace=wrap;connectable=0;strokeColor=#d79b00;overflow=hidden;fillColor=#ffe6cc;top=0;left=0;bottom=0;right=0;pointerEvents=1;fontSize=16;fontStyle=1;" parent="jCm1OSXwjIrnByu9w6en-3" vertex="1">
                    <mxGeometry x="224" width="113" height="113" as="geometry">
                        <mxRectangle width="113" height="113" as="alternateBounds"/>
                    </mxGeometry>
                </mxCell>
                <mxCell id="jCm1OSXwjIrnByu9w6en-7" value="&lt;br&gt;Validation error - Test error" style="shape=partialRectangle;html=1;whiteSpace=wrap;connectable=0;strokeColor=#d79b00;overflow=hidden;fillColor=#ffe6cc;top=0;left=0;bottom=0;right=0;pointerEvents=1;fontSize=16;fontStyle=1;" parent="jCm1OSXwjIrnByu9w6en-3" vertex="1">
                    <mxGeometry x="337" width="163" height="113" as="geometry">
                        <mxRectangle width="163" height="113" as="alternateBounds"/>
                    </mxGeometry>
                </mxCell>
                <mxCell id="jCm1OSXwjIrnByu9w6en-11" value="" style="shape=tableRow;horizontal=0;startSize=0;swimlaneHead=0;swimlaneBody=0;strokeColor=inherit;top=0;left=0;bottom=0;right=0;collapsible=0;dropTarget=0;fillColor=none;points=[[0,0.5],[1,0.5]];portConstraint=eastwest;fontSize=16;" parent="jCm1OSXwjIrnByu9w6en-2" vertex="1">
                    <mxGeometry y="143" width="500" height="117" as="geometry"/>
                </mxCell>
                <mxCell id="jCm1OSXwjIrnByu9w6en-12" value="A" style="shape=partialRectangle;html=1;whiteSpace=wrap;connectable=0;strokeColor=#d6b656;overflow=hidden;fillColor=#fff2cc;top=0;left=0;bottom=0;right=0;pointerEvents=1;fontSize=16;fontStyle=3" parent="jCm1OSXwjIrnByu9w6en-11" vertex="1">
                    <mxGeometry width="120" height="117" as="geometry">
                        <mxRectangle width="120" height="117" as="alternateBounds"/>
                    </mxGeometry>
                </mxCell>
                <mxCell id="jCm1OSXwjIrnByu9w6en-13" value="0.04" style="shape=partialRectangle;html=1;whiteSpace=wrap;connectable=0;strokeColor=#d6b656;overflow=hidden;fillColor=#fff2cc;top=0;left=0;bottom=0;right=0;pointerEvents=1;fontSize=16;" parent="jCm1OSXwjIrnByu9w6en-11" vertex="1">
                    <mxGeometry x="120" width="104" height="117" as="geometry">
                        <mxRectangle width="104" height="117" as="alternateBounds"/>
                    </mxGeometry>
                </mxCell>
                <mxCell id="jCm1OSXwjIrnByu9w6en-14" value="0.02" style="shape=partialRectangle;html=1;whiteSpace=wrap;connectable=0;strokeColor=#d6b656;overflow=hidden;fillColor=#fff2cc;top=0;left=0;bottom=0;right=0;pointerEvents=1;fontSize=16;" parent="jCm1OSXwjIrnByu9w6en-11" vertex="1">
                    <mxGeometry x="224" width="113" height="117" as="geometry">
                        <mxRectangle width="113" height="117" as="alternateBounds"/>
                    </mxGeometry>
                </mxCell>
                <mxCell id="jCm1OSXwjIrnByu9w6en-15" value="0.02" style="shape=partialRectangle;html=1;whiteSpace=wrap;connectable=0;strokeColor=#82b366;overflow=hidden;fillColor=#d5e8d4;top=0;left=0;bottom=0;right=0;pointerEvents=1;fontSize=16;" parent="jCm1OSXwjIrnByu9w6en-11" vertex="1">
                    <mxGeometry x="337" width="163" height="117" as="geometry">
                        <mxRectangle width="163" height="117" as="alternateBounds"/>
                    </mxGeometry>
                </mxCell>
                <mxCell id="jCm1OSXwjIrnByu9w6en-51" value="Save results" style="rounded=1;whiteSpace=wrap;html=1;fillColor=#d5e8d4;strokeColor=#82b366;arcSize=43;" parent="1" vertex="1">
                    <mxGeometry x="590" y="300" width="200" height="60" as="geometry"/>
                </mxCell>
                <mxCell id="jCm1OSXwjIrnByu9w6en-52" value="Restart developement" style="rounded=1;whiteSpace=wrap;html=1;fillColor=#f8cecc;strokeColor=#b85450;arcSize=43;" parent="1" vertex="1">
                    <mxGeometry x="590" y="190" width="200" height="60" as="geometry"/>
                </mxCell>
                <mxCell id="jCm1OSXwjIrnByu9w6en-53" value="Threshold = 0.1" style="rounded=0;whiteSpace=wrap;html=1;" parent="1" vertex="1">
                    <mxGeometry x="190" y="420" width="220" height="30" as="geometry"/>
                </mxCell>
                <mxCell id="2" value="" style="ellipse;whiteSpace=wrap;html=1;aspect=fixed;" vertex="1" parent="1">
                    <mxGeometry x="670" y="80" width="40" height="40" as="geometry"/>
                </mxCell>
                <mxCell id="3" value="" style="shape=sumEllipse;perimeter=ellipsePerimeter;whiteSpace=wrap;html=1;backgroundOutline=1;" vertex="1" parent="1">
                    <mxGeometry x="760" y="80" width="40" height="40" as="geometry"/>
                </mxCell>
                <mxCell id="4" value="" style="shape=lineEllipse;perimeter=ellipsePerimeter;whiteSpace=wrap;html=1;backgroundOutline=1;" vertex="1" parent="1">
                    <mxGeometry x="714.5" y="80" width="40" height="40" as="geometry"/>
                </mxCell>
                <mxCell id="5" value="Validation Results" style="strokeWidth=1;shadow=0;dashed=0;align=center;html=1;shape=mxgraph.mockup.text.textBox;fontColor=#666666;align=left;fontSize=17;spacingLeft=4;spacingTop=-3;strokeColor=#666666;mainText=" vertex="1" parent="1">
                    <mxGeometry x="50" y="85" width="600" height="30" as="geometry"/>
                </mxCell>
            </root>
        </mxGraphModel>
    </diagram>
</mxfile>